<?xml version="1.0" encoding="UTF-8" standalone="no"?>
<!-- Created with Inkscape (http://www.inkscape.org/) -->

<svg
   xmlns:dc="http://purl.org/dc/elements/1.1/"
   xmlns:cc="http://creativecommons.org/ns#"
   xmlns:rdf="http://www.w3.org/1999/02/22-rdf-syntax-ns#"
   xmlns:svg="http://www.w3.org/2000/svg"
   xmlns="http://www.w3.org/2000/svg"
   xmlns:sodipodi="http://sodipodi.sourceforge.net/DTD/sodipodi-0.dtd"
   xmlns:inkscape="http://www.inkscape.org/namespaces/inkscape"
   width="20mm"
   height="20mm"
   viewBox="0 0 20 20"
   version="1.1"
   id="svg1139"
   sodipodi:docname="Option icon.svg"
   inkscape:version="0.92.3 (2405546, 2018-03-11)">
  <title
     id="title3278">Option icon</title>
  <defs
     id="defs1133">
    <clipPath
       clipPathUnits="userSpaceOnUse"
       id="clipPath5238-1-8-9-8-4">
      <rect
         transform="rotate(-90)"
         style="color:#000000;display:inline;overflow:visible;visibility:visible;fill:#ffffff;fill-opacity:1;fill-rule:evenodd;stroke:none;enable-background:accumulate"
         id="rect5240-2-3-9-5-1"
         width="315.35437"
         height="744.09448"
         x="-1016.9291"
         y="1461.6753" />
    </clipPath>
    <clipPath
       clipPathUnits="userSpaceOnUse"
       id="clipPath5242-3-9-7-7">
      <rect
         transform="rotate(-90)"
         style="color:#000000;display:inline;overflow:visible;visibility:visible;fill:#ffffff;fill-opacity:1;fill-rule:evenodd;stroke:none;enable-background:accumulate"
         id="rect5244-3-2-6-6"
         width="315.35437"
         height="744.09448"
         x="-1016.9291"
         y="1461.6753" />
    </clipPath>
  </defs>
  <sodipodi:namedview
     id="base"
     pagecolor="#ffffff"
     bordercolor="#666666"
     borderopacity="1.0"
     inkscape:pageopacity="0.0"
     inkscape:pageshadow="2"
     inkscape:zoom="6.9717708"
     inkscape:cx="37.795276"
     inkscape:cy="37.795276"
     inkscape:document-units="mm"
     inkscape:current-layer="layer1"
     showgrid="false"
     inkscape:window-width="944"
     inkscape:window-height="1041"
     inkscape:window-x="960"
     inkscape:window-y="0"
     inkscape:window-maximized="0"
     inkscape:snap-bbox="true"
     inkscape:bbox-paths="true"
     inkscape:snap-bbox-edge-midpoints="true"
     inkscape:bbox-nodes="true"
     inkscape:snap-bbox-midpoints="true"
     inkscape:object-paths="true"
     inkscape:snap-intersection-paths="true"
     inkscape:snap-smooth-nodes="true"
     inkscape:snap-midpoints="true"
     fit-margin-left="0"
     fit-margin-top="0"
     fit-margin-right="0"
     fit-margin-bottom="0" />
  <metadata
     id="metadata1136">
    <rdf:RDF>
      <cc:Work
         rdf:about="">
        <dc:format>image/svg+xml</dc:format>
        <dc:type
           rdf:resource="http://purl.org/dc/dcmitype/StillImage" />
        <dc:title>Option icon</dc:title>
        <dc:date>2018-09-30</dc:date>
        <dc:creator>
          <cc:Agent>
            <dc:title>m1981</dc:title>
          </cc:Agent>
        </dc:creator>
        <dc:rights>
          <cc:Agent>
            <dc:title>Public domain</dc:title>
          </cc:Agent>
        </dc:rights>
        <dc:publisher>
          <cc:Agent>
            <dc:title>Inkscape</dc:title>
          </cc:Agent>
        </dc:publisher>
        <dc:subject>
          <rdf:Bag>
            <rdf:li>icon</rdf:li>
            <rdf:li>flat</rdf:li>
            <rdf:li>IT</rdf:li>
            <rdf:li>computer</rdf:li>
            <rdf:li>options</rdf:li>
            <rdf:li>settings</rdf:li>
            <rdf:li>tweak</rdf:li>
            <rdf:li>manage</rdf:li>
            <rdf:li>parameters</rdf:li>
            <rdf:li></rdf:li>
          </rdf:Bag>
        </dc:subject>
        <dc:description>An option icon.</dc:description>
      </cc:Work>
    </rdf:RDF>
  </metadata>
  <g
     inkscape:label="Calque 1"
     inkscape:groupmode="layer"
     id="layer1"
     transform="translate(-25.414562,-75.588669)">
    <path
       style="display:inline;opacity:1;vector-effect:none;fill:#4d4d4d;fill-opacity:1;fill-rule:evenodd;stroke:none;stroke-width:0.25461987px;stroke-linecap:butt;stroke-linejoin:miter;stroke-miterlimit:4;stroke-dasharray:none;stroke-dashoffset:0;stroke-opacity:1;marker:none"
       d="m 35.819058,79.814265 c -0.349463,0.02603 -0.695867,0.08372 -1.034914,0.172127 -0.198626,0.05581 -0.393869,0.122177 -0.585319,0.198626 l 0.06301,1.731732 c -0.416834,0.228643 -0.791786,0.526653 -1.108838,0.881015 l -1.669913,-0.44474 c -0.311778,0.46153 -0.555427,0.965601 -0.723474,1.496616 l 1.392406,1.031286 c -0.0809,0.469527 -0.08137,0.949397 -0.0012,1.419065 l -1.393621,1.028847 c 0.168375,0.531508 0.41239,1.035977 0.724682,1.497836 l 1.66992,-0.44596 c 0.317777,0.354573 0.693556,0.652489 1.111258,0.881015 l -0.06423,1.731708 c 0.519922,0.200503 1.066016,0.324955 1.621443,0.369628 l 0.693176,-1.583875 c 0.290313,-0.01642 0.578277,-0.06097 0.859192,-0.135779 0.17752,-0.04948 0.351592,-0.110453 0.521097,-0.182915 l 1.320904,1.133062 c 0.480338,-0.282439 0.917473,-0.632603 1.297884,-1.039752 L 39.703009,88.020819 C 39.977756,87.633157 40.1847,87.20169 40.314992,86.744756 L 42.0249,86.419965 C 42.10322,85.868407 42.10142,85.308431 42.02,84.757319 L 40.318571,84.433771 C 40.187013,83.975688 39.978439,83.543329 39.701743,83.155269 L 40.510129,81.62472 C 40.129693,81.217594 39.692588,80.867407 39.21225,80.584968 l -1.317273,1.133062 c -0.438786,-0.183149 -0.90553,-0.290623 -1.38029,-0.317498 z m -7.072313,0.813148 v 9.92621 c 0.455457,-0.274654 0.870981,-0.61063 1.234866,-0.998573 l -0.809507,-1.534184 c 0.275052,-0.387193 0.482385,-0.818261 0.61319,-1.274844 l 1.709911,-0.324791 c 0.07832,-0.551581 0.07628,-1.11151 -0.0049,-1.662646 l -1.701349,-0.323548 c -0.131557,-0.458083 -0.340113,-0.890442 -0.616827,-1.278502 l 0.807087,-1.529353 C 29.616083,81.239474 29.201383,80.902254 28.74677,80.627413 Z m 7.537662,2.22131 a 2.7417294,2.7417294 0 0 1 2.742398,2.741185 2.7417294,2.7417294 0 0 1 -0.02425,0.349015 l -1.354843,-0.418077 c -0.03468,-0.659829 -0.542415,-1.196659 -1.188814,-1.280917 l -0.316294,-1.386352 a 2.7417294,2.7417294 0 0 1 0.141782,-0.0047 z m -1.05673,0.215745 0.315077,1.381521 c -0.375301,0.24534 -0.62652,0.66738 -0.62652,1.145186 0,0.18737 0.03846,0.366251 0.10785,0.529561 l -1.037341,0.96342 a 2.7417294,2.7417294 0 0 1 -0.443533,-1.494201 2.7417294,2.7417294 0 0 1 1.68446,-2.525487 z m 1.05794,2.017735 c 0.284859,0 0.502917,0.224188 0.502917,0.508972 0,0.284854 -0.218067,0.502921 -0.502917,0.502921 -0.284861,0 -0.508974,-0.218091 -0.508974,-0.502921 0,-0.284878 0.224094,-0.508972 0.508974,-0.508972 z m 1.082174,1.334221 1.357263,0.419296 a 2.7417294,2.7417294 0 0 1 -2.440647,1.49664 2.7417294,2.7417294 0 0 1 -1.657804,-0.562298 l 1.040976,-0.965836 c 0.186878,0.09638 0.395011,0.156416 0.618038,0.156416 0.440702,0 0.830978,-0.216684 1.082174,-0.544124 z"
       id="path9591"
       inkscape:connector-curvature="0" />
  </g>
</svg>
